{"title":"Planes 2013 CAM XviD TANGiNA","uid":8845892,"size":737319682,"categoryP":"video","categoryS":"movies","magnet":"?xt=urn:btih:adf1350a1970cb617c9e6e183a0d5060a03892b7&amp;dn=Planes+2013+CAM+XviD+TANGiNA&amp;tr=udp%3A%2F%2Ftracker.openbittorrent.com%3A80&amp;tr=udp%3A%2F%2Fopen.demonii.com%3A1337&amp;tr=udp%3A%2F%2Ftracker.coppersurfer.tk%3A6969&amp;tr=udp%3A%2F%2Fexodus.desync.com%3A6969","seeders":1,"leechers":0,"uploader":"TeX","files":4,"time":1377382675,"description":"General\nComplete name : Planes.2013.CAM.XviD-TANGiNA\nFormat : AVI\nFormat/Info : Audio Video Interleave\nFile size : 698 MiB\nDuration : 1h 22mn\nOverall bit rate : 1 178 Kbps\nWriting application : VirtualDubMod 1.5.10.2 (build 2542/release)\nWriting library : VirtualDubMod build 2542/release\n\nVideo\nID : 0\nFormat : MPEG-4 Visual\nFormat profile : Advanced Simple@L5\nFormat settings, BVOP : 2\nFormat settings, QPel : No\nFormat settings, GMC : No warppoints\nFormat settings, Matrix : Default (H.263)\nCodec ID : XVID\nCodec ID/Hint : XviD\nDuration : 1h 22mn\nBit rate : 1 043 Kbps\nWidth : 640 pixels\nHeight : 284 pixels\nDisplay aspect ratio : 2.25:1\nFrame rate : 16.638 fps\nColor space : YUV\nChroma subsampling : 4:2:0\nBit depth : 8 bits\nScan type : Progressive\nCompression mode : Lossy\nBits/(Pixel*Frame) : 0.345\nStream size : 618 MiB (89%)\nWriting library : XviD 1.2.1 (UTC 2008-12-04)\n\nAudio\nID : 1\nFormat : MPEG Audio\nFormat version : Version 1\nFormat profile : Layer 3\nCodec ID : 55\nCodec ID/Hint : MP3\nDuration : 1h 22mn\nBit rate mode : Constant\nBit rate : 128 Kbps\nChannel(s) : 2 channels\nSampling rate : 44.1 KHz\nCompression mode : Lossy\nStream size : 75.9 MiB (11%)\nAlignment : Split accross interleaves\nInterleave, duration : 60 ms (1.00 video frame)\nInterleave, preload duration : 500 ms\n\n[img]http://i.imgur.com/wAqGzwf.png[/img]\n\n[img]http://i.imgur.com/6xUHgHD.png[/img]\n\n[img]http://i.imgur.com/T4CvX05.png[/img]\n\n[img]http://i.imgur.com/0njVhMB.png[/img]","torrent":{"xt":"urn:btih:adf1350a1970cb617c9e6e183a0d5060a03892b7","amp;dn":"Planes+2013+CAM+XviD+TANGiNA","amp;tr":["udp%3A%2F%2Ftracker.openbittorrent.com%3A80","udp%3A%2F%2Fopen.demonii.com%3A1337","udp%3A%2F%2Ftracker.coppersurfer.tk%3A6969","udp%3A%2F%2Fexodus.desync.com%3A6969"],"infoHash":"adf1350a1970cb617c9e6e183a0d5060a03892b7","infoHashBuffer":{"type":"Buffer","data":[173,241,53,10,25,112,203,97,124,158,110,24,58,13,80,96,160,56,146,183]},"announce":[],"urlList":[]}}